<?xml version="1.0" standalone="no"?>
<!DOCTYPE svg PUBLIC "-//W3C//DTD SVG 20010904//EN"
 "http://www.w3.org/TR/2001/REC-SVG-20010904/DTD/svg10.dtd">
<svg version="1.0" xmlns="http://www.w3.org/2000/svg"
 width="260.000000pt" height="260.000000pt" viewBox="0 0 260.000000 260.000000"
 preserveAspectRatio="xMidYMid meet">
<metadata>
Created by potrace 1.14, written by Peter Selinger 2001-2017
</metadata>
<g transform="translate(0.000000,260.000000) scale(0.100000,-0.100000)"
fill="#000000" stroke="none">
<path d="M1169 2596 c-2 -2 -24 -6 -49 -9 -25 -4 -56 -9 -70 -12 -14 -3 -35
-7 -48 -10 -50 -9 -186 -57 -258 -91 -64 -30 -143 -77 -239 -144 -29 -20 -100
-87 -144 -134 -20 -21 -43 -46 -52 -55 -55 -54 -212 -311 -191 -311 4 0 2 -4
-4 -8 -11 -7 -42 -90 -67 -182 -35 -124 -41 -170 -41 -335 -1 -156 11 -252 42
-353 6 -18 12 -36 13 -40 5 -20 8 -29 15 -47 4 -11 6 -23 6 -27 -1 -5 2 -8 6
-8 5 0 9 -6 9 -14 0 -39 161 -316 184 -316 5 0 9 -5 9 -10 0 -17 92 -115 165
-175 20 -16 50 -42 68 -57 18 -15 38 -28 45 -28 6 0 12 -4 12 -8 0 -5 12 -15
27 -23 16 -8 30 -16 33 -19 20 -22 252 -120 320 -135 153 -36 174 -38 340 -39
133 0 195 4 258 17 127 28 266 79 352 128 19 11 43 23 53 26 9 3 17 9 17 14 0
5 4 9 10 9 13 0 100 62 100 72 0 4 6 8 13 8 29 0 277 267 277 299 0 6 4 11 8
11 10 0 37 50 34 63 -1 4 2 7 7 7 9 0 91 172 91 192 0 8 4 18 8 24 13 13 40
125 56 224 14 83 15 331 2 395 -4 17 -11 55 -17 85 -13 68 -39 152 -50 165 -5
5 -9 16 -9 25 -1 41 -121 250 -205 355 -69 86 -220 222 -285 255 -14 7 -27 16
-30 20 -17 25 -267 136 -355 157 -49 12 -112 25 -140 29 -37 6 -321 14 -326
10z"/>
</g>
</svg>
